<svg xmlns="http://www.w3.org/2000/svg" viewBox="0 0 22.44 22.44"><title>target_visible_status</title><g id="Layer_2" data-name="Layer 2"><g id="Layer_1-2" data-name="Layer 1"><g id="Cam2"><g id="CamButton"><g id="Ащкьгдфк"><path d="M11.22,21.94A10.72,10.72,0,1,1,21.94,11.22,10.73,10.73,0,0,1,11.22,21.94Z" style="fill:#007c67"/><path d="M11.22,1A10.22,10.22,0,1,1,1,11.22,10.23,10.23,0,0,1,11.22,1m0-1A11.22,11.22,0,1,0,22.44,11.22,11.22,11.22,0,0,0,11.22,0Z" style="fill:#061c30"/><path d="M11.22,5.49A5.73,5.73,0,1,0,17,11.22,5.73,5.73,0,0,0,11.22,5.49ZM14.41,14A5,5,0,0,0,9.77,7h0a4.2,4.2,0,0,1,2-.51A4.23,4.23,0,0,1,14.41,14Z" style="fill:#061c30"/></g></g></g></g></g></svg>