<svg xmlns="http://www.w3.org/2000/svg" viewBox="0 0 22.46 22.46"><title>target)decline_status</title><g id="Layer_2" data-name="Layer 2"><g id="Layer_1-2" data-name="Layer 1"><g id="Cam2"><g id="CamButton"><g id="Ащкьгдфк"><path d="M11.23,22a3.48,3.48,0,0,1-2.48-1L1.52,13.71a3.51,3.51,0,0,1,0-5L8.76,1.52a3.5,3.5,0,0,1,5,0l7.23,7.23a3.51,3.51,0,0,1,0,5l-7.23,7.23A3.48,3.48,0,0,1,11.23,22Z" style="fill:#d13d52"/><path d="M11.23,1a3,3,0,0,1,2.12.88l7.23,7.23a3,3,0,0,1,0,4.24l-7.23,7.23a3,3,0,0,1-4.24,0L1.88,13.35a3,3,0,0,1,0-4.24L9.11,1.88A3,3,0,0,1,11.23,1m0-1A4,4,0,0,0,8.4,1.17L1.17,8.4a4,4,0,0,0,0,5.66L8.4,21.29a4,4,0,0,0,5.66,0l7.23-7.23a4,4,0,0,0,0-5.66L14.06,1.17A4,4,0,0,0,11.23,0Z" style="fill:#061c30"/><line x1="6.23" y1="11.23" x2="16.23" y2="11.23" style="fill:none;stroke:#061c30;stroke-miterlimit:10;stroke-width:2px"/></g></g></g></g></g></svg>